<svg viewBox="0 0 256 259" fill="none" xmlns="http://www.w3.org/2000/svg">
<path d="M45.1531 167.922C62.4653 140.792 119.187 138.25 150 147C180.813 155.75 218 184 206.235 214.857C194.47 245.713 138.083 262.828 91.0947 248.448C44.106 234.068 27.8409 195.051 45.1531 167.922Z" fill="#FDDC01"/>
<path d="M65 63.989C65 61.2413 64.8336 58.5071 64.8874 55.7599C65.1132 44.2204 69.7275 12.6709 114 18C168 24.5 193 36.5 193 71.4311V204L65 173.495V63.989Z" fill="#483E35"/>
<g style="mix-blend-mode:hard-light" filter="url(#filter0_f)">
<path d="M84.0008 113.143C84.0008 112.679 83.9959 112.237 84.0075 111.773C84.1345 106.705 86.2985 74.8872 120.706 79.4453C158.072 84.3954 167 103.66 167 124.822V209L109 235L84.0008 191V113.143Z" fill="url(#paint0_radial)"/>
</g>
<path d="M121.82 33.0369L121.583 33.3167V33.6835V210.036V211.102L122.646 211.034L190.59 206.727L190.97 206.703L191.238 206.432L195.294 202.323L195.583 202.031V201.62V81.0038C195.583 63.6083 186.766 49.4209 173.813 39.9801C160.872 30.549 143.771 25.8231 127.058 27.3038L126.649 27.34L126.383 27.6533L121.82 33.0369Z" fill="#836E5A" stroke="#232D41" stroke-width="2"/>
<path d="M190.526 86.2142V205.729L122.583 210.036V33.4553C156.555 30.7636 190.546 51.5142 190.526 86.2142Z" fill="#91755B"/>
<path d="M190.526 86.2142V205.729L122.583 210.036V33.4553C156.555 30.7636 190.546 51.5142 190.526 86.2142Z" fill="url(#paint1_linear)" fill-opacity="0.4"/>
<path d="M190.526 86.2142V205.729L122.583 210.036V33.4553C156.555 30.7636 190.546 51.5142 190.526 86.2142Z" fill="url(#paint2_linear)" fill-opacity="0.1" style="mix-blend-mode:color-burn"/>
<path fill-rule="evenodd" clip-rule="evenodd" d="M129.681 85.2242C129.681 84.0351 130.589 83.0333 131.708 82.9866L133.401 82.916C134.52 82.8693 135.427 83.7954 135.427 84.9845C135.427 86.1735 134.52 87.1753 133.401 87.222L131.708 87.2926C130.589 87.3393 129.681 86.4132 129.681 85.2242ZM140.402 84.777C140.402 83.5879 141.309 82.5861 142.428 82.5394L145.814 82.3982C146.933 82.3515 147.84 83.2776 147.84 84.4666C147.84 85.6557 146.933 86.6575 145.814 86.7042L142.428 86.8454C141.309 86.8921 140.402 85.966 140.402 84.777ZM152.815 84.2591C152.815 83.0701 153.722 82.0683 154.841 82.0216L158.227 81.8804C159.346 81.8337 160.253 82.7597 160.253 83.9488C160.253 85.1379 159.346 86.1397 158.227 86.1864L154.841 86.3276C153.722 86.3743 152.815 85.4482 152.815 84.2591ZM165.228 83.7413C165.228 82.5522 166.135 81.5505 167.254 81.5038L170.639 81.3625C171.759 81.3158 172.666 82.2419 172.666 83.431C172.666 84.6201 171.759 85.6218 170.639 85.6685L167.254 85.8098C166.135 85.8564 165.228 84.9304 165.228 83.7413ZM177.64 83.2235C177.64 82.0344 178.548 81.0326 179.667 80.9859L181.36 80.9153C182.479 80.8686 183.386 81.7947 183.386 82.9838C183.386 84.1728 182.479 85.1746 181.36 85.2213L179.667 85.2919C178.548 85.3386 177.64 84.4125 177.64 83.2235Z" fill="#232D41"/>
<path fill-rule="evenodd" clip-rule="evenodd" d="M130 196.818C130 195.713 130.912 194.767 132.037 194.704L133.634 194.615C134.759 194.553 135.671 195.397 135.671 196.502C135.671 197.607 134.759 198.553 133.634 198.615L132.037 198.704C130.912 198.767 130 197.922 130 196.818ZM140.115 196.255C140.115 195.15 141.027 194.204 142.152 194.141L145.346 193.964C146.471 193.901 147.383 194.746 147.383 195.85C147.383 196.955 146.471 197.901 145.346 197.964L142.152 198.141C141.027 198.204 140.115 197.359 140.115 196.255ZM151.827 195.603C151.827 194.498 152.739 193.552 153.864 193.49L157.058 193.312C158.183 193.249 159.095 194.094 159.095 195.199C159.095 196.303 158.183 197.249 157.058 197.312L153.864 197.49C152.739 197.552 151.827 196.708 151.827 195.603ZM163.539 194.951C163.539 193.847 164.45 192.901 165.575 192.838L168.77 192.66C169.894 192.598 170.806 193.442 170.806 194.547C170.806 195.651 169.894 196.598 168.77 196.66L165.575 196.838C164.45 196.901 163.539 196.056 163.539 194.951ZM175.25 194.3C175.25 193.195 176.162 192.249 177.287 192.186L178.884 192.097C180.009 192.035 180.921 192.879 180.921 193.984C180.921 195.089 180.009 196.035 178.884 196.097L177.287 196.186C176.162 196.249 175.25 195.404 175.25 194.3Z" fill="#232D41"/>
<path d="M132.254 139.315C132.254 138.247 133.094 137.367 134.161 137.317L143.057 136.903C144.197 136.85 145.15 137.76 145.15 138.901V140.757C145.15 141.826 144.31 142.705 143.243 142.755L134.348 143.169C133.208 143.223 132.254 142.313 132.254 141.172V139.315Z" fill="#232D41"/>
<path d="M66.0451 42.4667L66.0279 42.5544L66.0275 42.6476L65.5125 173.321L65.5105 173.844L65.9286 174.238L102.543 208.743L102.95 209.127L103.42 209.067L112.095 207.951L112.752 207.866V207.153V26.9499V26.1035L111.938 25.7806L111.777 26.7306C111.938 25.7806 111.938 25.7803 111.937 25.7801L111.935 25.7792L111.928 25.7765L111.904 25.7671C111.883 25.759 111.853 25.7474 111.814 25.7326C111.737 25.7028 111.623 25.66 111.476 25.606C111.182 25.4981 110.754 25.3453 110.21 25.1631C109.12 24.7986 107.562 24.3155 105.675 23.836C101.906 22.8785 96.7995 21.9293 91.4829 21.9821C86.1673 22.0348 80.6008 23.0898 75.9586 26.181C71.3023 29.2818 67.6255 34.3995 66.0451 42.4667Z" fill="#836E5A" stroke="#232D41" stroke-width="2"/>
<g style="mix-blend-mode:soft-light">
<path d="M66.4882 173.545L66.9763 43.0729C71.3777 20.7282 103.167 29.013 103.167 29.013L103.102 208.05L66.4882 173.545Z" fill="#66574A"/>
<path d="M66.4882 173.545L66.9763 43.0729C71.3777 20.7282 103.167 29.013 103.167 29.013L103.102 208.05L66.4882 173.545Z" fill="url(#paint3_linear)" fill-opacity="0.5"/>
<path d="M66.4882 173.545L66.9763 43.0729C71.3777 20.7282 103.167 29.013 103.167 29.013L103.102 208.05L66.4882 173.545Z" fill="url(#paint4_linear)" fill-opacity="0.1" style="mix-blend-mode:color-burn"/>
</g>
<path fill-rule="evenodd" clip-rule="evenodd" d="M71.0532 164.252C71.6872 163.289 72.9084 163.075 73.7809 163.775L74.8221 164.611C75.6946 165.311 75.888 166.659 75.2541 167.623C74.6202 168.586 73.399 168.8 72.5265 168.1L71.4853 167.264C70.6128 166.564 70.4193 165.216 71.0532 164.252ZM77.6478 169.543C78.2817 168.58 79.5029 168.366 80.3754 169.066L82.4579 170.737C83.3304 171.437 83.5238 172.786 82.8899 173.75C82.256 174.713 81.0348 174.927 80.1623 174.227L78.0798 172.556C77.2073 171.856 77.0139 170.507 77.6478 169.543ZM85.2835 175.67C85.9174 174.707 87.1386 174.493 88.0111 175.193L90.0936 176.864C90.9661 177.564 91.1596 178.913 90.5256 179.876C89.8917 180.84 88.6705 181.053 87.798 180.353L85.7155 178.682C84.843 177.982 84.6496 176.634 85.2835 175.67ZM92.9193 181.797C93.5532 180.833 94.7744 180.62 95.6469 181.32L96.6881 182.155C97.5607 182.855 97.7541 184.204 97.1202 185.167C96.4862 186.131 95.265 186.345 94.3925 185.645L93.3513 184.809C92.4788 184.109 92.2854 182.76 92.9193 181.797Z" fill="#232D41"/>
<path fill-rule="evenodd" clip-rule="evenodd" d="M69.8024 62.7095C70.2847 61.6442 71.4577 61.2124 72.4223 61.7451L73.5338 62.3588C74.4984 62.8915 74.8894 64.1869 74.4071 65.2522C73.9248 66.3174 72.7518 66.7492 71.7872 66.2166L70.6757 65.6029C69.7111 65.0702 69.3201 63.7748 69.8024 62.7095ZM76.8417 66.5965C77.324 65.5312 78.497 65.0994 79.4616 65.6321L81.6846 66.8596C82.6492 67.3922 83.0402 68.6876 82.5579 69.7529C82.0756 70.8182 80.9026 71.25 79.938 70.7173L77.715 69.4899C76.7504 68.9572 76.3594 67.6618 76.8417 66.5965ZM84.9925 71.0973C85.4748 70.032 86.6478 69.6002 87.6124 70.1328L89.8354 71.3603C90.8 71.8929 91.191 73.1883 90.7087 74.2536C90.2264 75.3189 89.0534 75.7507 88.0888 75.2181L85.8658 73.9906C84.9012 73.4579 84.5102 72.1626 84.9925 71.0973ZM93.1433 75.598C93.6256 74.5327 94.7986 74.1009 95.7632 74.6336L96.8747 75.2473C97.8393 75.7799 98.2303 77.0753 97.748 78.1406C97.2657 79.2059 96.0927 79.6377 95.1281 79.1051L94.0166 78.4913C93.052 77.9587 92.661 76.6633 93.1433 75.598Z" fill="#232D41"/>
<path d="M86.5039 130.752C86.5039 129.189 88.2172 128.23 89.5498 129.047L94.3372 131.985C94.93 132.348 95.2913 132.994 95.2913 133.689V134.388C95.2913 135.951 93.578 136.91 92.2454 136.093L87.458 133.155C86.8652 132.792 86.5039 132.146 86.5039 131.451V130.752Z" fill="#232D41"/>
<g style="mix-blend-mode:hard-light" filter="url(#filter1_f)">
<path d="M116.375 69C116.375 69 140.451 189 116.375 189C92.2995 189 116.375 69 116.375 69Z" fill="url(#paint5_radial)"/>
</g>
<defs>
<filter id="filter0_f" x="59.9998" y="55" width="131" height="204" filterUnits="userSpaceOnUse" color-interpolation-filters="sRGB">
<feFlood flood-opacity="0" result="BackgroundImageFix"/>
<feBlend mode="normal" in="SourceGraphic" in2="BackgroundImageFix" result="shape"/>
<feGaussianBlur stdDeviation="12" result="effect1_foregroundBlur"/>
</filter>
<filter id="filter1_f" x="81.675" y="45" width="69.4008" height="168" filterUnits="userSpaceOnUse" color-interpolation-filters="sRGB">
<feFlood flood-opacity="0" result="BackgroundImageFix"/>
<feBlend mode="normal" in="SourceGraphic" in2="BackgroundImageFix" result="shape"/>
<feGaussianBlur stdDeviation="12" result="effect1_foregroundBlur"/>
</filter>
<radialGradient id="paint0_radial" cx="0" cy="0" r="1" gradientUnits="userSpaceOnUse" gradientTransform="translate(125.5 157) rotate(90) scale(78 41.5)">
<stop stop-color="white"/>
<stop offset="1" stop-color="#00FFF0"/>
</radialGradient>
<linearGradient id="paint1_linear" x1="156.555" y1="14.9934" x2="156.555" y2="210.036" gradientUnits="userSpaceOnUse">
<stop/>
<stop offset="1" stop-opacity="0"/>
</linearGradient>
<linearGradient id="paint2_linear" x1="122.583" y1="113.688" x2="190.526" y2="113.688" gradientUnits="userSpaceOnUse">
<stop stop-color="white"/>
<stop offset="0.0833333"/>
<stop offset="0.161458" stop-color="white"/>
<stop offset="0.244792"/>
<stop offset="0.307292" stop-color="white"/>
<stop offset="0.385417"/>
<stop offset="0.484375" stop-color="white"/>
<stop offset="0.578125"/>
<stop offset="0.65625" stop-color="white"/>
<stop offset="0.734375"/>
<stop offset="0.8125" stop-color="white"/>
<stop offset="0.890625"/>
<stop offset="1" stop-color="white"/>
</linearGradient>
<linearGradient id="paint3_linear" x1="103.102" y1="203.737" x2="139.792" y2="40.5383" gradientUnits="userSpaceOnUse">
<stop/>
<stop offset="1" stop-opacity="0"/>
</linearGradient>
<linearGradient id="paint4_linear" x1="67.0032" y1="102.561" x2="103.167" y2="102.561" gradientUnits="userSpaceOnUse">
<stop stop-color="white"/>
<stop offset="0.0833333"/>
<stop offset="0.161458" stop-color="white"/>
<stop offset="0.244792"/>
<stop offset="0.307292" stop-color="white"/>
<stop offset="0.385417"/>
<stop offset="0.484375" stop-color="white"/>
<stop offset="0.578125"/>
<stop offset="0.65625" stop-color="white"/>
<stop offset="0.734375"/>
<stop offset="0.8125" stop-color="white"/>
<stop offset="0.890625"/>
<stop offset="1" stop-color="white"/>
</linearGradient>
<radialGradient id="paint5_radial" cx="0" cy="0" r="1" gradientUnits="userSpaceOnUse" gradientTransform="translate(116.375 129) rotate(90) scale(60 10.7004)">
<stop stop-color="white"/>
<stop offset="1" stop-color="#00FFF0"/>
</radialGradient>
</defs>
</svg>
