<svg viewBox="0 0 461 100" xmlns="http://www.w3.org/2000/svg">
<path d="M359 91V27H378V91H359Z" />
<path d="M359 19V1H378V19H359Z" />
<path d="M275 91H293V1H275L275 91Z" />
<path fill-rule="evenodd" clip-rule="evenodd" d="M309 91C326.673 91 341 76.6731 341 59C341 41.3269 326.673 27 309 27C291.327 27 277 41.3269 277 59C277 76.6731 291.327 91 309 91ZM309 75C317.837 75 325 67.8366 325 59C325 50.1634 317.837 43 309 43C300.163 43 293 50.1634 293 59C293 67.8366 300.163 75 309 75Z" />
<path d="M170.033 45.0006C171.913 38.9852 174.601 34.4841 178.098 31.4974C181.639 28.5107 186.011 27.0173 191.213 27.0173C192.393 27.0173 194.339 27.2276 197.049 27.6483C197.574 27.7324 197.958 28.0019 197.836 28.4055C197.5 29.5166 193.292 45.8691 193.115 46.5781C192.938 47.2871 189.967 45.5685 185.77 45.5685C181.574 45.5685 176.918 46.9146 174.426 49.7331C171.934 52.5094 170.689 57.1788 170.689 63.7411V91H152V29.0996H170.426L170.033 45.0006Z" />
<path d="M191.213 91L203.734 39.0062C203.734 39.0062 205.025 29.4782 216.525 27.6483C221.631 26.8358 228.525 27.0173 233.246 27.0173C238.229 27.0173 242.404 27.8376 245.77 29.4782C249.18 31.0767 251.869 33.5376 253.836 36.8608C254.798 38.5855 255.475 40.5416 255.869 42.729C256.306 44.8744 256.525 48.2607 256.525 52.888V91H237.836V61.2802C237.836 53.6663 236.525 50.0111 235.525 48.0116C234.525 46.0122 230.525 42.0133 224.025 42.0133C217.525 42.0133 214.147 45.1712 212.025 48.0116C209.902 50.8521 210.025 56.0095 210.025 61.0081C210.025 72.2336 210.025 91 210.025 91H191.213Z" />
<path fill-rule="evenodd" clip-rule="evenodd" d="M202.5 29.0168C203.232 29.2607 203.751 29.9498 203.5 31.0162L189 91C189 91 189.246 91 188 91C186.754 91 186.249 90.5668 186.5 89.5004L200.517 30.0585C201 28.5169 201.768 28.7728 202.5 29.0168Z" />
<path d="M112.959 47.3001C115.686 50.177 117 52.1377 117 57H90.6491C90.6491 57 90.5 59.1319 90.5 60.5C90.5 62.5 91 64 91 64H134V59.0304C134 49.7515 131 42.0934 124.999 36.056C118.998 30.0187 111.361 27 102.088 27C92.853 27 85.1963 30.0592 79.1178 36.1776C73.0393 42.296 70 49.9136 70 59.0304C70 68.1877 73.0198 75.8053 79.0594 81.8832C85.0989 87.9611 92.775 91 102.088 91C111.322 91 119.879 86.7664 124.941 81.8832C130.002 77 132.494 71.0547 134 67H116.5C113.5 74.5 106.304 74.9544 101.971 74.9544C97.3729 74.9544 93.7297 73.4957 91.0411 70.5783C88.3525 67.661 87.0082 63.7711 87.0082 58.9088C87.0082 54.006 88.3525 50.1162 91.0411 47.2393C93.7297 44.3625 97.3729 42.924 101.971 42.924C106.569 42.924 110.231 44.3827 112.959 47.3001Z" />
<path d="M17.0082 67.9088V48H54.5V31H17.0082V10H0V45V68.0304C0 77.1877 3.01979 84.8053 9.05936 90.8832C15.0989 96.9611 22.775 100 32.0877 100C41.3224 100 49.8794 95.7664 54.9406 90.8832C60.0019 86 62.4944 79.0547 64 75H46.5C43.5 82.5 36.3045 83.9544 31.9708 83.9544C27.3729 83.9544 23.7297 82.4957 21.0411 79.5783C18.3525 76.661 17.0082 72.7711 17.0082 67.9088Z" />
<path d="M441.99 91L441.99 58.6235C441.99 53.1856 440.921 49.2954 438.784 46.9529C436.603 44.6105 433.076 43.4392 428.202 43.4392C423.371 43.4392 419.866 44.6105 417.685 46.9529C415.505 49.3373 414.415 53.2274 414.415 58.6235L414.415 91L396.138 91L396.138 58.6235C396.138 47.7895 398.725 39.8 403.898 34.6549C409.071 29.5516 417.087 27 427.946 27C439.019 27 447.163 29.5516 452.379 34.6549C457.552 39.7582 460.138 47.7477 460.138 58.6235L460.138 91L441.99 91Z" />
</svg>
