<svg viewBox="0 0 1000 200" xmlns="http://www.w3.org/2000/svg">
<path d="M87.404 132.453C82.9333 132.453 79.309 128.829 79.309 124.358V94.7657C79.309 91.0905 76.3297 88.1112 72.6545 88.1112V88.1112C68.9793 88.1112 66 85.1319 66 81.4567V81.2497C66 77.4602 69.072 74.3882 72.8615 74.3882H101.947C105.736 74.3882 108.808 77.4602 108.808 81.2497V81.4567C108.808 85.1319 105.829 88.1112 102.154 88.1112V88.1112C98.4783 88.1112 95.499 91.0905 95.499 94.7657V124.358C95.499 128.829 91.8747 132.453 87.404 132.453V132.453Z" />
<path d="M155.544 103.083C154.359 106.892 157.204 110.758 161.193 110.758V110.758C165.191 110.758 168.038 106.874 166.834 103.062L163.218 91.6014C163.028 91.0197 162.771 90.0811 162.447 88.7854C162.375 88.5013 162.3 88.1993 162.219 87.8795C161.952 86.8166 160.421 86.8155 160.134 87.8732V87.8732C159.809 89.1688 159.471 90.4116 159.119 91.6014L155.544 103.083ZM141.112 132.453C135.966 132.453 132.268 127.365 133.981 122.512L148.609 81.0603C150.02 77.062 153.799 74.3882 158.039 74.3882H164.181C168.419 74.3882 172.196 77.0592 173.609 81.0545L188.277 122.538C189.988 127.377 186.399 132.453 181.266 132.453H181.083C177.88 132.453 175.062 130.335 174.173 127.257V127.257C173.284 124.18 170.467 122.062 167.264 122.062H155.085C151.87 122.062 149.038 124.176 148.123 127.257V127.257C147.209 130.339 144.326 132.453 141.112 132.453V132.453Z" />
<path d="M234.852 132.453C230.381 132.453 226.757 128.829 226.757 124.358V94.7657C226.757 91.0905 223.778 88.1112 220.102 88.1112V88.1112C216.427 88.1112 213.448 85.1319 213.448 81.4567V81.2497C213.448 77.4602 216.52 74.3882 220.309 74.3882H249.394C253.184 74.3882 256.256 77.4602 256.256 81.2497V81.4567C256.256 85.1319 253.277 88.1112 249.601 88.1112V88.1112C245.926 88.1112 242.947 91.0905 242.947 94.7657V124.358C242.947 128.829 239.323 132.453 234.852 132.453V132.453Z" />
<path d="M286.426 120.982C288.687 117.335 293.753 117.037 297.4 119.298C297.615 119.432 297.831 119.56 298.046 119.682C300.4 121.004 302.74 121.665 305.066 121.665C307.23 121.665 309.002 121.097 310.381 119.96C311.788 118.823 312.491 117.382 312.491 115.637C312.491 113.706 311.883 112.226 310.665 111.194C309.475 110.137 306.757 109.053 302.51 107.942C296.694 106.409 292.582 104.412 290.174 101.953C287.767 99.4941 286.563 96.1229 286.563 91.8394C286.563 86.2867 288.457 81.7653 292.244 78.275C296.058 74.7583 300.995 73 307.054 73C310.327 73 313.425 73.4363 316.346 74.3088C317.757 74.7136 319.13 75.2212 320.466 75.8317C323.018 76.9974 323.869 80.0711 322.727 82.6335L322.35 83.4815C320.987 86.5402 317.068 87.3548 313.952 86.1281V86.1281C312.032 85.3349 310.124 84.9382 308.231 84.9382C306.283 84.9382 304.701 85.401 303.483 86.3264C302.266 87.2254 301.658 88.3888 301.658 89.8166C301.658 91.2709 302.185 92.4343 303.24 93.3069C304.322 94.1795 306.391 95.0124 309.448 95.8056C309.638 95.8585 309.881 95.9246 310.179 96.0039C316.779 97.749 321.121 99.666 323.204 101.755C324.61 103.183 325.679 104.901 326.409 106.911C327.139 108.894 327.505 111.102 327.505 113.534C327.505 119.695 325.435 124.653 321.296 128.408C317.158 132.136 311.639 134 304.741 134C300.603 134 296.829 133.313 293.421 131.938C291.485 131.151 289.589 130.108 287.734 128.81C285.216 127.049 284.807 123.593 286.426 120.982V120.982Z" />
<path d="M360.328 82.4628C360.328 78.0033 363.943 74.3882 368.402 74.3882V74.3882C372.862 74.3882 376.477 78.0033 376.477 82.4628V102.627C376.477 106.779 376.585 109.767 376.802 111.591C377.018 113.389 377.383 114.896 377.897 116.112C378.519 117.593 379.601 118.73 381.143 119.523C382.685 120.29 384.565 120.674 386.783 120.674C389.002 120.674 390.868 120.29 392.383 119.523C393.925 118.73 395.02 117.593 395.67 116.112C396.184 114.896 396.549 113.389 396.765 111.591C396.982 109.767 397.09 106.779 397.09 102.627V82.4426C397.09 77.9942 400.696 74.3882 405.144 74.3882V74.3882C409.593 74.3882 413.199 77.9942 413.199 82.4426V105.086C413.199 111.459 412.806 116.165 412.022 119.206C411.237 122.22 409.912 124.798 408.045 126.94C406.017 129.293 403.23 131.065 399.687 132.255C396.143 133.418 391.842 134 386.783 134C381.698 134 377.383 133.418 373.84 132.255C370.323 131.065 367.537 129.293 365.481 126.94C363.641 124.798 362.316 122.22 361.504 119.206C360.72 116.165 360.328 111.459 360.328 105.086V82.4628Z" />
<path d="M467.994 132.453C463.68 132.453 460.183 128.956 460.183 124.642V108.954C460.183 107 459.61 105.089 458.536 103.457L447.129 86.1217C443.816 81.0872 447.427 74.3882 453.454 74.3882V74.3882C456.247 74.3882 458.814 75.9264 460.131 78.39L465.985 89.3407C466.039 89.42 466.12 89.5655 466.229 89.777C466.251 89.8194 466.274 89.8619 466.297 89.9042C466.81 90.8726 469.181 90.8907 469.718 89.9356V89.9356C469.88 89.6448 469.989 89.4465 470.043 89.3407L475.82 78.4224C477.134 75.9405 479.712 74.3882 482.519 74.3882V74.3882C488.552 74.3882 492.167 81.094 488.851 86.1336L477.451 103.457C476.377 105.089 475.805 107 475.805 108.954V124.642C475.805 128.956 472.308 132.453 467.994 132.453V132.453Z" />
<path d="M535.025 103.083C533.839 106.892 536.685 110.758 540.673 110.758V110.758C544.672 110.758 547.518 106.874 546.315 103.062L542.698 91.6014C542.509 91.0197 542.252 90.0811 541.927 88.7854C541.856 88.5013 541.78 88.1993 541.7 87.8795C541.433 86.8166 539.901 86.8155 539.614 87.8732V87.8732C539.29 89.1688 538.952 90.4116 538.6 91.6014L535.025 103.083ZM520.592 132.453C515.446 132.453 511.749 127.365 513.461 122.512L528.09 81.0603C529.501 77.062 533.28 74.3882 537.52 74.3882H543.662C547.899 74.3882 551.677 77.0592 553.089 81.0545L567.758 122.538C569.469 127.377 565.879 132.453 560.747 132.453H560.563C557.36 132.453 554.543 130.335 553.654 127.257V127.257C552.765 124.18 549.947 122.062 546.744 122.062H534.565C531.351 122.062 528.518 124.176 527.604 127.257V127.257C526.689 130.339 523.807 132.453 520.592 132.453V132.453Z" />
<path d="M663.836 120.982C666.098 117.335 671.163 117.037 674.81 119.298C675.026 119.432 675.241 119.56 675.456 119.682C677.81 121.004 680.15 121.665 682.476 121.665C684.64 121.665 686.412 121.097 687.792 119.96C689.198 118.823 689.902 117.382 689.902 115.637C689.902 113.706 689.293 112.226 688.076 111.194C686.885 110.137 684.167 109.053 679.92 107.942C674.104 106.409 669.992 104.412 667.585 101.953C665.177 99.4941 663.973 96.1229 663.973 91.8394C663.973 86.2867 665.867 81.7653 669.654 78.275C673.468 74.7583 678.405 73 684.464 73C687.737 73 690.835 73.4363 693.756 74.3088C695.167 74.7136 696.54 75.2212 697.876 75.8317C700.428 76.9975 701.279 80.0711 700.138 82.6335L699.76 83.4815C698.397 86.5402 694.478 87.3548 691.362 86.1281V86.1281C689.442 85.3349 687.535 84.9382 685.641 84.9382C683.693 84.9382 682.111 85.401 680.894 86.3264C679.676 87.2254 679.068 88.3888 679.068 89.8166C679.068 91.2709 679.595 92.4343 680.65 93.3069C681.732 94.1795 683.802 95.0124 686.858 95.8056C687.048 95.8585 687.291 95.9246 687.589 96.0039C694.189 97.749 698.531 99.666 700.614 101.755C702.02 103.183 703.089 104.901 703.819 106.911C704.55 108.894 704.915 111.102 704.915 113.534C704.915 119.695 702.845 124.653 698.707 128.408C694.568 132.136 689.049 134 682.151 134C678.013 134 674.239 133.313 670.831 131.938C668.895 131.151 667 130.108 665.144 128.81C662.626 127.049 662.217 123.593 663.836 120.982V120.982Z" />
<path d="M824.481 132.453C820.01 132.453 816.386 128.829 816.386 124.358V94.7657C816.386 91.0905 813.407 88.1112 809.732 88.1112V88.1112C806.056 88.1112 803.077 85.1318 803.077 81.4566V81.2497C803.077 77.4602 806.149 74.3882 809.939 74.3882H839.024C842.813 74.3882 845.885 77.4602 845.885 81.2497V81.4567C845.885 85.1319 842.906 88.1112 839.231 88.1112V88.1112C835.555 88.1112 832.576 91.0905 832.576 94.7657V124.358C832.576 128.829 828.952 132.453 824.481 132.453V132.453Z" />
<path d="M934 103.54C934 107.717 933.216 111.631 931.647 115.28C930.078 118.928 927.792 122.194 924.789 125.076C921.759 127.932 918.297 130.14 914.402 131.7C910.506 133.233 906.462 134 902.269 134C898.022 134 893.951 133.233 890.056 131.7C886.188 130.14 882.779 127.932 879.831 125.076C876.774 122.194 874.447 118.915 872.851 115.24C871.283 111.565 870.498 107.665 870.498 103.54C870.498 99.3884 871.283 95.4883 872.851 91.8394C874.447 88.1641 876.774 84.8853 879.831 82.0033C882.779 79.1476 886.188 76.953 890.056 75.4194C893.951 73.8593 898.022 73.0793 902.269 73.0793C906.489 73.0793 910.547 73.8593 914.442 75.4194C918.365 76.953 921.814 79.1476 924.789 82.0033C927.765 84.8589 930.037 88.1244 931.606 91.7997C933.202 95.4751 934 99.3884 934 103.54ZM902.269 120.594C906.76 120.594 910.466 118.981 913.387 115.756C916.336 112.53 917.81 108.458 917.81 103.54C917.81 98.6745 916.322 94.6157 913.347 91.3635C910.371 88.1112 906.679 86.485 902.269 86.485C897.779 86.485 894.059 88.1112 891.111 91.3635C888.189 94.5893 886.729 98.648 886.729 103.54C886.729 108.511 888.176 112.596 891.07 115.795C893.965 118.995 897.698 120.594 902.269 120.594Z" />
<path fill-rule="evenodd" clip-rule="evenodd" d="M41.8868 53.5738C42.5296 57.3436 40.3897 60.6221 36.6222 61.64C36.1654 61.7357 35.6724 61.8516 35.221 61.9694C34.2984 62.2102 33.1341 62.5579 32.0252 63.0004V63.0004C31.0885 63.3742 30.5391 64.3125 30.5391 65.321V89.9043C30.5391 91.8581 29.6483 93.7054 28.1195 94.9219V94.9219C24.8932 97.4891 24.8932 102.39 28.1195 104.957V104.957C29.6483 106.174 30.5391 108.021 30.5391 109.975V134.558C30.5391 135.567 31.0885 136.505 32.0252 136.879V136.879C33.1341 137.321 34.2984 137.669 35.221 137.91C35.6724 138.028 36.0436 138.114 36.2927 138.169C36.4167 138.197 36.5091 138.216 36.5644 138.227L36.6122 138.237C40.1674 138.921 42.53 142.533 41.8868 146.305C41.2434 150.079 37.7667 152.57 34.2102 151.887L34.0728 151.86C33.9603 151.836 33.8067 151.804 33.6176 151.762C33.2403 151.679 32.7169 151.556 32.0946 151.394C30.8699 151.074 29.1713 150.576 27.4171 149.876C25.7399 149.206 23.6199 148.201 21.8027 146.723C20.1058 145.343 17.4509 142.521 17.4509 138.126V118.648C17.4509 115.601 16.0617 112.72 13.6775 110.823L9.83382 107.765C4.80251 103.761 4.80252 96.1181 9.83384 92.1146L13.6775 89.0561C16.0617 87.1589 17.4509 84.2781 17.4509 81.2311V61.7528C17.4509 57.3585 20.1058 54.5365 21.8027 53.1562C23.6199 51.6781 25.7399 50.6728 27.4171 50.0035C29.1713 49.3034 30.8699 48.805 32.0946 48.4853C32.7169 48.3229 33.2403 48.2006 33.6176 48.117C33.8067 48.0752 33.5051 48.1402 33.6176 48.117C37.1741 47.4344 41.2434 49.8005 41.8868 53.5738ZM29.7077 135.654C29.703 135.65 29.7034 135.649 29.7077 135.654V135.654V135.654ZM29.7077 64.2253C29.7035 64.2297 29.7031 64.2293 29.7077 64.2253V64.2253V64.2253Z" />
<path d="M763.425 58.9778L761.829 58.4667L761.437 58.3414C760.74 58.1181 759.995 58.0904 759.283 58.2614L758.429 58.4667L757.137 58.7768C756.706 58.8804 756.295 59.0555 755.921 59.2948C755.336 59.6695 754.86 60.191 754.539 60.8073L754.023 61.7986C753.726 62.3689 753.571 63.0023 753.571 63.6452V64.238C753.571 64.7386 753.692 65.2319 753.923 65.6759L754.097 66.0104C754.382 66.5569 754.428 67.1965 754.226 67.7787L753.779 69.0695C753.661 69.4098 753.817 69.7844 754.141 69.9404C754.387 70.0583 754.543 70.3066 754.543 70.579V71.0709C754.543 71.3721 754.452 71.6662 754.281 71.9146L753.414 73.1776C753.198 73.4921 752.841 73.68 752.46 73.68H752.371C752.072 73.68 751.788 73.5424 751.603 73.3067L751.585 73.2832C751.412 73.0623 751.146 72.9333 750.865 72.9333C750.728 72.9333 750.593 72.9642 750.469 73.0236L750.399 73.0574C749.963 73.2668 749.686 73.7076 749.686 74.1912V74.7912C749.686 75.3931 749.44 75.969 749.006 76.3861L748.777 76.6068C748.417 76.9522 748.151 77.3829 748.002 77.8588L746.945 81.2435C746.834 81.5985 746.581 81.8914 746.246 82.0524L745.843 82.2462C745.311 82.5018 745.133 83.1726 745.47 83.6575C745.673 83.9501 745.697 84.3311 745.533 84.6471L745.378 84.9436C745.336 85.0255 745.286 85.1033 745.229 85.1761L742.997 88.0353C742.61 88.5308 742.4 89.1414 742.4 89.7701C742.4 90.055 742.357 90.3384 742.272 90.6104L740.943 94.8667L739.62 98.0442C739.222 98.9996 739.21 100.072 739.586 101.036L741.441 105.788C741.749 106.576 742.298 107.246 743.01 107.702L744.486 108.647C744.714 108.793 744.956 108.916 745.208 109.013L748.251 110.182C749.174 110.537 750.197 110.537 751.121 110.182L751.76 109.936C751.994 109.846 752.243 109.8 752.494 109.8C753.626 109.8 754.543 110.717 754.543 111.848V113.199C754.543 113.421 754.565 113.643 754.608 113.861L755.181 116.746C755.333 117.512 755.257 118.305 754.964 119.029L754.741 119.577C754.61 119.902 754.436 120.208 754.224 120.488L750.987 124.764C750.768 125.053 750.59 125.371 750.456 125.709L749.761 127.469C749.622 127.821 749.434 128.152 749.202 128.451L748.071 129.91C747.853 130.191 747.674 130.5 747.538 130.828L746.75 132.729C746.664 132.936 746.561 133.135 746.442 133.325L746.073 133.913C745.35 135.063 745.447 136.547 746.313 137.593C746.911 138.315 747.8 138.733 748.737 138.733H749.486C750.251 138.733 750.999 138.953 751.643 139.365L752.83 140.125C753.318 140.438 753.869 140.641 754.444 140.72L760.371 141.533L762.548 141.846C763.205 141.94 763.859 141.654 764.235 141.108C764.784 140.312 764.582 139.223 763.785 138.676L762.24 137.616C761.969 137.429 761.662 137.301 761.339 137.239C760.213 137.023 759.4 136.038 759.4 134.893V133.249C759.4 132.863 759.456 132.479 759.566 132.109L762.16 123.386C762.262 123.041 762.411 122.712 762.601 122.407L763.226 121.406C763.584 120.834 763.791 120.18 763.828 119.506L764.226 112.228C764.247 111.856 764.319 111.488 764.441 111.136L764.573 110.755C764.986 109.566 765.934 108.641 767.132 108.257L768.143 107.933L770.196 107.144C770.437 107.051 770.705 107.051 770.947 107.144C771.771 107.461 772.593 106.681 772.32 105.842L770.571 100.467L765.592 89.5931C765.352 89.0705 765.229 88.5025 765.229 87.9276V85.7634C765.229 85.0059 764.997 84.2665 764.565 83.6442L763.979 82.7985C763.552 82.1844 763.502 81.3849 763.847 80.722C764.108 80.2196 764.146 79.6304 763.951 79.0988L761.735 73.0678C761.545 72.5495 761.928 72 762.48 72C762.685 72 762.883 71.9206 763.03 71.7786L764.692 70.1818C765.336 69.5632 765.654 68.6793 765.551 67.7923L765.467 67.0579C765.334 65.9159 766.143 64.8788 767.282 64.7277L768.206 64.6052C768.667 64.5441 769.021 64.1651 769.05 63.7007C769.085 63.1404 768.64 62.6667 768.078 62.6667H766.968C765.968 62.6667 765.12 61.9349 764.973 60.9464L764.946 60.7692C764.822 59.9309 764.232 59.2363 763.425 58.9778Z" />
<path fill-rule="evenodd" clip-rule="evenodd" d="M958.113 52.5738C957.47 56.3436 959.61 59.6221 963.378 60.64C963.835 60.7357 964.328 60.8516 964.779 60.9694C965.702 61.2102 966.866 61.5579 967.975 62.0004V62.0004C968.911 62.3742 969.461 63.3125 969.461 64.321V88.9043C969.461 90.8581 970.352 92.7054 971.881 93.9219V93.9219C975.107 96.4891 975.107 101.39 971.881 103.957V103.957C970.352 105.174 969.461 107.021 969.461 108.975V133.558C969.461 134.567 968.911 135.505 967.975 135.879V135.879C966.866 136.321 965.702 136.669 964.779 136.91C964.328 137.028 963.956 137.114 963.707 137.169C963.583 137.197 963.491 137.216 963.436 137.227L963.388 137.237C959.833 137.921 957.47 141.533 958.113 145.305C958.757 149.079 962.233 151.57 965.79 150.887L965.927 150.86C966.04 150.836 966.193 150.804 966.382 150.762C966.76 150.679 967.283 150.556 967.905 150.394C969.13 150.074 970.829 149.576 972.583 148.876C974.26 148.206 976.38 147.201 978.197 145.723C979.894 144.343 982.549 141.521 982.549 137.126V117.648C982.549 114.601 983.938 111.72 986.323 109.823L990.166 106.765C995.197 102.761 995.197 95.1181 990.166 91.1146L986.323 88.0561C983.938 86.1589 982.549 83.2781 982.549 80.2311V60.7528C982.549 56.3585 979.894 53.5365 978.197 52.1562C976.38 50.6781 974.26 49.6728 972.583 49.0035C970.829 48.3034 969.13 47.805 967.905 47.4853C967.283 47.3229 966.76 47.2006 966.382 47.117C966.193 47.0752 966.495 47.1402 966.382 47.117C962.826 46.4344 958.757 48.8005 958.113 52.5738ZM970.292 134.654C970.297 134.65 970.297 134.649 970.292 134.654V134.654V134.654ZM970.292 63.2253C970.297 63.2297 970.297 63.2293 970.292 63.2253V63.2253V63.2253Z" />
</svg>
