<svg viewBox="0 0 256 192" fill="none" xmlns="http://www.w3.org/2000/svg">
<path d="M61.3887 30.2633C84.1867 -14.0436 178.515 3.37486 178.515 3.37486C178.515 3.37486 225.246 17.5827 242.098 45.1691C251.229 60.1163 253.339 70.5704 255.484 87.9499C259.052 116.868 242.952 154.404 242.952 154.404C242.952 154.404 218.694 165.452 188.344 160.9C175.52 158.976 128.318 151.261 88.1605 134.456C48.0029 117.651 48.0029 108 48.0029 108C48.0029 108 47.4572 57.3387 61.3887 30.2633Z" fill="url(#paint0_linear)"/>
<path d="M48.0046 108C48.0046 108 49 115 81 131C113 147 189 161 189 161C189 161 168.245 180.93 147 189C122.986 198.122 62 180 43 170C24 160 -5.50077 136.367 3.50015 126.236C12.5011 116.105 48.0046 108 48.0046 108Z" fill="url(#paint1_linear)"/>
<path d="M185 6C185 9.31371 180.523 12 175 12C169.477 12 165 9.31371 165 6C165 2.68629 169.477 -5.75973e-08 175 -5.75973e-08C180.523 -5.75973e-08 185 2.68629 185 6Z" fill="url(#paint2_linear)"/>
<path d="M110 75.5L107 112L76 98.2707L110 75.5Z" fill="#F0F0F0"/>
<ellipse cx="130" cy="168" rx="20" ry="14" fill="url(#paint3_linear)"/>
<path fill-rule="evenodd" clip-rule="evenodd" d="M211.152 157.357C211.487 157.004 211.557 156.506 211.441 156.208C211.425 156.165 211.384 156.201 211.299 156.275C211.191 156.369 211.014 156.524 210.725 156.662L211.152 157.357ZM210.858 157.586L210.477 156.766C210.331 156.819 210.163 156.865 209.972 156.899C209.937 156.905 209.902 156.911 209.869 156.916L210.037 157.775C210.143 157.775 210.254 157.767 210.372 157.748C210.559 157.719 210.721 157.662 210.858 157.586ZM209.663 157.737C209.123 157.62 208.806 157.259 208.742 156.934C208.73 156.876 208.805 156.886 208.956 156.906C209.103 156.926 209.322 156.956 209.603 156.941L209.663 157.737Z" fill="white"/>
<path fill-rule="evenodd" clip-rule="evenodd" d="M214.222 154.099L214.788 154.282C215.233 152.729 214.961 151.229 214.154 151.026C213.346 150.824 212.364 151.803 211.92 153.356L212.489 153.54C212.818 152.557 213.418 151.874 213.878 151.989C214.355 152.109 214.504 153.045 214.222 154.099ZM212.46 153.632C212.449 153.665 212.439 153.698 212.43 153.732C212.119 154.817 212.263 155.796 212.752 155.918C213.241 156.041 213.888 155.263 214.199 154.18L214.766 154.359C214.321 155.911 213.317 156.968 212.51 156.765C211.702 156.563 211.447 155.005 211.892 153.453L212.46 153.632Z" fill="white"/>
<path fill-rule="evenodd" clip-rule="evenodd" d="M205.779 154.309L205.213 154.491C204.768 152.938 205.04 151.438 205.847 151.236C206.654 151.034 207.636 152.013 208.081 153.566L207.511 153.75C207.183 152.766 206.582 152.084 206.123 152.199C205.646 152.319 205.497 153.255 205.779 154.309ZM207.541 153.841C207.551 153.874 207.561 153.908 207.571 153.941C207.882 155.026 207.737 156.005 207.248 156.128C206.76 156.25 206.113 155.472 205.802 154.39L205.235 154.568C205.68 156.121 206.684 157.178 207.491 156.975C208.298 156.773 208.553 155.215 208.109 153.662L207.541 153.841Z" fill="white"/>
<defs>
<linearGradient id="paint0_linear" x1="169.32" y1="150.822" x2="147.825" y2="3.60925" gradientUnits="userSpaceOnUse">
<stop stop-color="#2C2C2C"/>
<stop offset="1" stop-color="#524870"/>
</linearGradient>
<linearGradient id="paint1_linear" x1="4.36281" y1="112.358" x2="141.793" y2="165.421" gradientUnits="userSpaceOnUse">
<stop stop-color="#141020"/>
<stop offset="1" stop-color="#5C566C"/>
</linearGradient>
<linearGradient id="paint2_linear" x1="178.333" y1="4.47221" x2="178.333" y2="16.4722" gradientUnits="userSpaceOnUse">
<stop stop-color="#635589"/>
<stop offset="1"/>
</linearGradient>
<linearGradient id="paint3_linear" x1="130" y1="157.5" x2="119.196" y2="178.078" gradientUnits="userSpaceOnUse">
<stop stop-color="#FFC700"/>
<stop offset="1" stop-color="#C4C4C4" stop-opacity="0"/>
</linearGradient>
</defs>
</svg>
