<svg viewBox="0 0 20 23" fill="none" xmlns="http://www.w3.org/2000/svg">
<path d="M2.08333 20.8704H17.9167V2.12963H6.25L2.08333 6.84246V20.8704ZM18.5718 0.000754677C19.3616 0.000754677 20 0.652346 20 1.45725V21.5445C20 22.3494 19.3607 23 18.5709 23H1.43549C0.645712 23 0.00636677 22.3484 0.00636677 21.5445C0.00542656 21.3864 0.00448634 7.39535 0.000725491 6.84246C-0.00642305 6.57397 0.0393174 6.30674 0.135243 6.05657C0.231169 5.8064 0.375332 5.57837 0.559212 5.38596L4.86163 0.606351C5.02781 0.409559 5.23501 0.253067 5.4681 0.148296C5.7012 0.0435243 5.95431 -0.00688236 6.20895 0.000754677H18.5718Z" />
<path fill-rule="evenodd" clip-rule="evenodd" d="M8.75 4.0463C9.3253 4.0463 9.79167 4.52303 9.79167 5.11111V8.94444C9.79167 9.53252 9.3253 10.0093 8.75 10.0093H5C4.4247 10.0093 3.95833 9.53252 3.95833 8.94444C3.95833 8.35636 4.4247 7.87963 5 7.87963H7.70833V5.11111C7.70833 4.52303 8.1747 4.0463 8.75 4.0463Z" />
</svg>
