<svg width="256" height="256" viewBox="0 0 256 256" fill="none" xmlns="http://www.w3.org/2000/svg">
<circle cx="128" cy="128" r="100" fill="#99AEE5"/>
<path d="M74.9242 248C74.0944 248 73.3509 247.488 73.0553 246.712L67.2206 231.406C66.9863 230.791 67.0692 230.1 67.4425 229.559C67.8158 229.017 68.4316 228.693 69.0894 228.693H183.927C184.585 228.693 185.201 229.017 185.574 229.559C185.947 230.1 186.03 230.791 185.796 231.406L179.961 246.712C179.665 247.488 178.922 248 178.092 248H74.9242Z" fill="#FDDC01" stroke="#232D41" stroke-width="4" stroke-linejoin="round"/>
<path d="M78.9892 201.36C78.1473 201.36 77.3955 201.887 77.1087 202.679L67.209 230.012C66.9869 230.625 67.0777 231.308 67.452 231.842C67.8264 232.376 68.4375 232.693 69.0894 232.693H183.927C184.579 232.693 185.19 232.376 185.564 231.842C185.939 231.308 186.029 230.625 185.807 230.012L175.908 202.679C175.621 201.887 174.869 201.36 174.027 201.36H78.9892Z" fill="#FDDC01" stroke="#232D41" stroke-width="4" stroke-linejoin="round"/>
<path d="M233.933 21.3905L233.319 18.501C232.531 14.7926 228.574 12.8669 225.128 14.5146L205.148 24.0675C204.797 24.2356 204.408 24.298 204.03 24.2472L177.497 20.6785C176.298 20.5172 175.066 20.7356 173.968 21.3041L125.32 46.4828C125.042 46.6266 124.737 46.7038 124.43 46.7084L70.503 47.5057C69.3774 47.5224 68.2685 47.8636 67.3051 48.4898L44.441 63.3514C44.1666 63.5298 43.8559 63.6392 43.5358 63.6704L21.5902 65.8067C17.9566 66.1604 15.3725 69.7127 16.1359 73.3044L16.7647 76.2627C17.3815 79.1643 20.007 81.0978 22.9425 80.8121L45.7986 78.5872C47.0321 78.4671 48.2116 77.9603 49.1732 77.1371L70.8026 58.6203C71.1745 58.302 71.6422 58.127 72.1198 58.1277L125.841 58.2022C126.826 58.2036 127.805 57.9554 128.69 57.48L176.807 31.6161C177.26 31.3728 177.781 31.3111 178.264 31.4438L205.196 38.8403C206.55 39.2122 208.008 39.0756 209.306 38.4549L230.492 28.3252C233.088 27.0842 234.527 24.1836 233.933 21.3905Z" fill="url(#paint0_linear)" stroke="#232D41" stroke-width="4" stroke-linejoin="round"/>
<path d="M124.097 33.3476C123.491 32.9236 122.699 32.8687 122.039 33.2068C121.371 33.549 120.951 34.2363 120.951 34.9867V209.92C120.951 211.025 121.847 211.92 122.951 211.92H131.081C132.186 211.92 133.081 211.025 133.081 209.92V34.9867C133.081 34.2363 132.661 33.549 131.993 33.2068C131.334 32.8687 130.542 32.9236 129.935 33.3476C129.934 33.3486 129.932 33.3499 129.929 33.3515C129.914 33.3616 129.878 33.3842 129.822 33.4153C129.711 33.4779 129.525 33.5737 129.271 33.6733C128.764 33.8724 127.996 34.0835 127.016 34.0835C126.037 34.0835 125.269 33.8724 124.762 33.6733C124.508 33.5737 124.321 33.4779 124.21 33.4153C124.155 33.3842 124.119 33.3616 124.103 33.3515C124.101 33.3499 124.099 33.3486 124.097 33.3476Z" fill="#FDDC01" stroke="#232D41" stroke-width="4" stroke-linejoin="round"/>
<path d="M122.243 145.624L121.935 147.6C122.243 145.624 122.243 145.624 122.243 145.624L122.242 145.624L122.242 145.624L122.241 145.624L122.25 145.625L122.299 145.632C122.347 145.639 122.422 145.649 122.525 145.661C122.73 145.686 123.043 145.721 123.454 145.756C124.277 145.826 125.49 145.897 127.016 145.897C128.542 145.897 129.756 145.826 130.578 145.756C130.989 145.721 131.303 145.686 131.508 145.661C131.61 145.649 131.686 145.639 131.733 145.632L131.783 145.625L122.243 145.624ZM122.243 145.624C122.242 145.624 122.242 145.624 122.241 145.623C121.664 145.534 121.078 145.701 120.634 146.081C120.19 146.461 119.935 147.016 119.935 147.6V179.307C119.935 180.411 120.83 181.307 121.935 181.307H132.098C133.202 181.307 134.098 180.411 134.098 179.307V147.6C134.098 147.016 133.842 146.461 133.398 146.081C132.955 145.701 132.367 145.534 131.79 145.624L122.243 145.624Z" fill="#FDDC01" stroke="#232D41" stroke-width="4" stroke-linejoin="round"/>
<path d="M127.016 216.293C133.217 216.293 139.202 215.78 143.684 213.65C145.97 212.564 147.928 211.029 149.301 208.883C150.676 206.735 151.374 204.118 151.374 201.021C151.374 195.723 150.141 190.588 147.374 186.494C144.577 182.354 140.284 179.396 134.458 178.427C133.739 178.308 133.135 178.432 132.675 178.564C132.471 178.623 132.261 178.694 132.086 178.754L132.057 178.763C131.862 178.83 131.674 178.893 131.463 178.957C130.672 179.197 129.392 179.493 127.016 179.493C124.641 179.493 123.361 179.197 122.57 178.957C122.358 178.893 122.171 178.83 121.976 178.764L121.947 178.754C121.771 178.694 121.562 178.623 121.358 178.564C120.898 178.432 120.294 178.308 119.574 178.427C113.749 179.396 109.456 182.354 106.658 186.494C103.891 190.588 102.659 195.723 102.659 201.021C102.659 204.118 103.356 206.735 104.731 208.883C106.105 211.029 108.062 212.564 110.349 213.65C114.831 215.78 120.816 216.293 127.016 216.293Z" fill="#FDDC01" stroke="#232D41" stroke-width="4" stroke-linejoin="round"/>
<path d="M122.138 37.3704L121.935 39.36C122.138 37.3704 122.138 37.3703 122.138 37.3703L122.139 37.3704L122.15 37.3715L122.205 37.3766C122.256 37.3813 122.335 37.3883 122.442 37.3968C122.655 37.4138 122.976 37.4371 123.396 37.4605C124.236 37.5073 125.469 37.5547 127.016 37.5547C128.564 37.5547 129.797 37.5073 130.637 37.4605C131.056 37.4371 131.378 37.4138 131.591 37.3968C131.697 37.3883 131.777 37.3813 131.828 37.3766L131.883 37.3715L131.894 37.3704L122.138 37.3704ZM122.138 37.3704C122.138 37.3703 122.138 37.3703 122.138 37.3703C122.138 37.3703 122.138 37.3703 122.137 37.3703C122.137 37.3703 122.137 37.3702 122.137 37.3702C121.575 37.3131 121.014 37.4967 120.595 37.8756C120.175 38.2548 119.935 38.7942 119.935 39.36V60.1333C119.935 61.2379 120.83 62.1333 121.935 62.1333H132.098C133.202 62.1333 134.098 61.2379 134.098 60.1333V39.36C134.098 38.7942 133.858 38.2548 133.438 37.8756C133.018 37.4965 132.457 37.3129 131.895 37.3703L122.138 37.3704Z" fill="#FDDC01" stroke="#232D41" stroke-width="4" stroke-linejoin="round"/>
<path d="M49 160C61.0254 160 71.9941 158.416 80.0248 155.801C84.0291 154.497 87.4145 152.902 89.8408 151.034C92.239 149.188 94 146.829 94 144C94 141.171 92.239 138.812 89.8408 136.966C87.4145 135.098 84.0291 133.503 80.0248 132.199C71.9941 129.584 61.0254 128 49 128C36.9746 128 26.0059 129.584 17.9752 132.199C13.9709 133.503 10.5855 135.098 8.1592 136.966C5.76102 138.812 4 141.171 4 144C4 146.829 5.76102 149.188 8.1592 151.034C10.5855 152.902 13.9709 154.497 17.9752 155.801C26.0059 158.416 36.9746 160 49 160Z" fill="url(#paint1_linear)" stroke="#232D41" stroke-width="4" stroke-linejoin="round"/>
<path d="M206 120C218.025 120 228.994 118.416 237.025 115.801C241.029 114.497 244.415 112.902 246.841 111.034C249.239 109.188 251 106.829 251 104C251 101.171 249.239 98.8118 246.841 96.9657C244.415 95.0981 241.029 93.5025 237.025 92.1988C228.994 89.5841 218.025 88 206 88C193.975 88 183.006 89.5841 174.975 92.1988C170.971 93.5025 167.585 95.0981 165.159 96.9657C162.761 98.8118 161 101.171 161 104C161 106.829 162.761 109.188 165.159 111.034C167.585 112.902 170.971 114.497 174.975 115.801C183.006 118.416 193.975 120 206 120Z" fill="url(#paint2_linear)" stroke="#232D41" stroke-width="4" stroke-linejoin="round"/>
<path d="M161 104C159.02 104.285 159.021 104.287 159.021 104.288L159.021 104.292L159.023 104.301L159.027 104.327C159.03 104.349 159.035 104.377 159.041 104.413C159.052 104.484 159.069 104.583 159.093 104.708C159.14 104.958 159.213 105.312 159.319 105.755C159.532 106.642 159.879 107.889 160.426 109.377C161.517 112.349 163.412 116.305 166.632 120.262C173.131 128.25 184.836 136 205.5 136C226.162 136 238.101 128.253 244.843 120.293C248.186 116.346 250.208 112.399 251.397 109.431C251.992 107.946 252.381 106.701 252.622 105.816C252.743 105.373 252.828 105.02 252.883 104.77C252.911 104.646 252.931 104.547 252.945 104.476C252.952 104.441 252.958 104.413 252.962 104.391L252.966 104.365L252.968 104.356L252.969 104.352C252.969 104.351 252.969 104.349 251 104L252.969 104.349L250.731 107.763C250.332 108.212 249.867 108.697 249.327 109.208C245.728 117.798 235.026 134 205.5 134C176.327 134 166.058 118.184 162.621 109.52C161.961 108.864 161.415 108.243 160.966 107.677C160.317 106.859 159.875 106.161 159.586 105.646C159.442 105.388 159.337 105.177 159.264 105.02C159.227 104.941 159.198 104.876 159.177 104.825C159.166 104.799 159.157 104.778 159.15 104.76L159.14 104.735L159.136 104.725L159.134 104.721C159.134 104.719 159.133 104.717 161 104ZM161 104C162.98 103.715 162.979 103.714 162.979 103.713L162.979 103.711M161 104L162.867 103.283C162.865 103.277 162.862 103.27 162.859 103.264M161 104L159.02 104.285C158.875 103.277 159.51 102.321 160.496 102.065C161.474 101.81 162.488 102.325 162.859 103.264M161 104C162.867 103.283 162.866 103.281 162.866 103.279L162.864 103.276L162.862 103.27L162.859 103.263C162.859 103.261 162.858 103.261 162.858 103.261C162.859 103.261 162.859 103.262 162.859 103.264M164.327 108.39C169.145 112.998 180.381 119.579 205.26 119.579C230.774 119.579 242.597 112.658 247.645 108.042L164.327 108.39ZM164.327 108.39C164.277 108.257 164.228 108.127 164.18 107.998C163.694 106.673 163.39 105.577 163.209 104.823C163.119 104.446 163.059 104.156 163.024 103.966C163.006 103.871 162.994 103.802 162.987 103.759L162.98 103.716L162.979 103.711M164.327 108.39L249.202 103.124C249.197 103.134 249.184 103.159 249.162 103.197C249.12 103.272 249.045 103.4 248.931 103.574C248.704 103.922 248.322 104.452 247.741 105.106C246.581 106.412 244.615 108.224 241.474 110.064C235.196 113.74 224.129 117.579 205.26 117.579C186.385 117.579 175.713 113.738 169.83 110.09C166.887 108.265 165.116 106.473 164.099 105.191C163.59 104.549 163.266 104.03 163.077 103.693C162.983 103.524 162.922 103.401 162.889 103.33C162.873 103.295 162.863 103.273 162.86 103.265C162.86 103.264 162.86 103.264 162.859 103.264M162.979 103.711C162.979 103.71 162.979 103.71 162.979 103.71L162.979 103.71L162.979 103.711Z" fill="url(#paint3_linear)" stroke="#232D41" stroke-width="4" stroke-linejoin="round"/>
<path d="M4 144C2.02044 144.285 2.02064 144.287 2.02085 144.288L2.02138 144.292L2.02274 144.301L2.02679 144.327C2.0301 144.349 2.03463 144.377 2.04052 144.413C2.05228 144.484 2.06946 144.583 2.09303 144.708C2.14017 144.958 2.21294 145.312 2.31928 145.755C2.53185 146.642 2.87929 147.889 3.4257 149.377C4.51738 152.349 6.41206 156.305 9.63189 160.262C16.1311 168.25 27.8362 176 48.5 176C69.1621 176 81.1007 168.253 87.8429 160.293C91.1862 156.346 93.2085 152.399 94.3972 149.431C94.9922 147.946 95.3805 146.701 95.6222 145.816C95.7431 145.373 95.8275 145.02 95.8829 144.77C95.9105 144.646 95.931 144.547 95.945 144.476C95.9521 144.441 95.9576 144.413 95.9615 144.391L95.9665 144.365L95.9681 144.356L95.9688 144.352C95.969 144.351 95.9693 144.349 94 144L95.9693 144.349L93.7312 147.763C93.3321 148.212 92.8668 148.697 92.3274 149.208C88.7281 157.798 78.0261 174 48.5 174C19.3274 174 9.05803 158.184 5.62094 149.52C4.96102 148.864 4.41493 148.243 3.96602 147.677C3.31691 146.859 2.87457 146.161 2.58638 145.646C2.44234 145.388 2.33697 145.177 2.2636 145.02C2.22691 144.941 2.19824 144.876 2.17673 144.825C2.16598 144.799 2.15702 144.778 2.14975 144.76L2.1401 144.735L2.1362 144.725L2.13447 144.721C2.13367 144.719 2.1329 144.717 4 144ZM4 144C5.97956 143.715 5.9794 143.714 5.97925 143.713L5.97902 143.711M4 144L5.8671 143.283C5.86459 143.277 5.86205 143.27 5.85948 143.264M4 144L2.02044 144.285C1.87524 143.277 2.51045 142.321 3.49582 142.065C4.47441 141.81 5.48807 142.325 5.85948 143.264M4 144C5.8671 143.283 5.86637 143.281 5.86567 143.279L5.86436 143.276L5.86212 143.27L5.85921 143.263C5.85858 143.261 5.85833 143.261 5.85847 143.261C5.85858 143.261 5.85891 143.262 5.85948 143.264M7.3274 148.39C12.1449 152.998 23.3806 159.579 48.2601 159.579C73.7736 159.579 85.5965 152.658 90.6446 148.042L7.3274 148.39ZM7.3274 148.39C7.27668 148.257 7.22772 148.127 7.18046 147.998C6.69391 146.673 6.38981 145.577 6.20907 144.823C6.11877 144.446 6.05945 144.156 6.02366 143.966C6.00577 143.871 5.99377 143.802 5.98673 143.759L5.97978 143.716L5.97902 143.711M7.3274 148.39L92.202 143.124C92.1966 143.134 92.1836 143.159 92.1625 143.197C92.1202 143.272 92.0449 143.4 91.9312 143.574C91.7038 143.922 91.322 144.452 90.7409 145.106C89.5809 146.412 87.6149 148.224 84.4737 150.064C78.1961 153.74 67.1291 157.579 48.2601 157.579C29.3854 157.579 18.7127 153.738 12.8297 150.09C9.88735 148.265 8.11639 146.473 7.09946 145.191C6.58968 144.549 6.26565 144.03 6.0772 143.693C5.98291 143.524 5.92239 143.401 5.88945 143.33C5.87297 143.295 5.86339 143.273 5.85992 143.265C5.85976 143.264 5.85961 143.264 5.85948 143.264M5.97902 143.711C5.97892 143.71 5.97887 143.71 5.97887 143.71L5.97887 143.71L5.97902 143.711Z" fill="url(#paint4_linear)" stroke="#232D41" stroke-width="4" stroke-linejoin="round"/>
<path d="M127.016 36.9867C132.185 36.9867 136.13 32.5246 136.13 27.3334C136.13 22.1422 132.185 17.6801 127.016 17.6801C121.848 17.6801 117.902 22.1422 117.902 27.3334C117.902 32.5246 121.848 36.9867 127.016 36.9867Z" fill="#FDDC01" stroke="#232D41" stroke-width="4" stroke-linejoin="round"/>
<path d="M74.7673 246H178.25L182.5 234.5H70.5L74.7673 246Z" fill="url(#paint5_linear)"/>
<path d="M129.049 63.9867H131.081V144H129.049V63.9867Z" fill="url(#paint6_linear)"/>
<path d="M129 40L132 39.5001V60.0001L129 60V40Z" fill="url(#paint7_linear)"/>
<path d="M149.374 201.021C149.374 212.152 139.423 214.281 127.125 214.293C127.054 214.294 127.016 214.293 127.016 214.293C127.052 214.293 127.089 214.293 127.125 214.293C128.388 214.28 140.309 213.816 141.752 201.021C143.276 187.507 134.13 180.4 134.13 180.4C143.785 182.04 149.374 189.857 149.374 201.021Z" fill="url(#paint8_linear)"/>
<path d="M129 148.5L132 148V176.5L129 177V148.5Z" fill="url(#paint9_linear)"/>
<path d="M134.13 27.3334C134.13 31.5602 130.945 34.9867 127.016 34.9867C127.016 34.9867 131 34.0082 131 27.5C131 20.9918 127.016 19.6801 127.016 19.6801C130.945 19.6801 134.13 23.1066 134.13 27.3334Z" fill="url(#paint10_linear)"/>
<path d="M2 137L47.5 84L96 137" stroke="#232D41" stroke-width="4" stroke-linecap="round" stroke-linejoin="round" stroke-dasharray="8 8"/>
<path d="M159 98L206.5 44L253 98" stroke="#232D41" stroke-width="4" stroke-linecap="round" stroke-linejoin="round" stroke-dasharray="8 8"/>
<defs>
<linearGradient id="paint0_linear" x1="128.733" y1="68.6862" x2="122.969" y2="44.0632" gradientUnits="userSpaceOnUse">
<stop stop-color="#655801"/>
<stop offset="1" stop-color="#FDDC01"/>
</linearGradient>
<linearGradient id="paint1_linear" x1="6" y1="130" x2="85" y2="173" gradientUnits="userSpaceOnUse">
<stop stop-color="#FFDE00"/>
<stop offset="0.427083" stop-color="#FFDE00"/>
<stop offset="1" stop-color="#3F3600"/>
</linearGradient>
<linearGradient id="paint2_linear" x1="171.5" y1="94.5" x2="242" y2="134" gradientUnits="userSpaceOnUse">
<stop stop-color="#FFDE00"/>
<stop offset="0.427083" stop-color="#FFDE00"/>
<stop offset="1" stop-color="#3F3600"/>
</linearGradient>
<linearGradient id="paint3_linear" x1="206" y1="104" x2="206" y2="134" gradientUnits="userSpaceOnUse">
<stop stop-color="#9E8A05"/>
<stop offset="1" stop-color="#FFDE00"/>
</linearGradient>
<linearGradient id="paint4_linear" x1="49" y1="144" x2="49" y2="174" gradientUnits="userSpaceOnUse">
<stop stop-color="#9E8A05"/>
<stop offset="1" stop-color="#FFDE00"/>
</linearGradient>
<linearGradient id="paint5_linear" x1="176" y1="81.5" x2="33.5" y2="81.5" gradientUnits="userSpaceOnUse">
<stop stop-color="#9E8A05"/>
<stop offset="1" stop-color="#9E8A05" stop-opacity="0"/>
</linearGradient>
<linearGradient id="paint6_linear" x1="176" y1="81.5" x2="33.5" y2="81.5" gradientUnits="userSpaceOnUse">
<stop stop-color="#9E8A05"/>
<stop offset="1" stop-color="#9E8A05" stop-opacity="0"/>
</linearGradient>
<linearGradient id="paint7_linear" x1="176" y1="81.5" x2="33.5" y2="81.5" gradientUnits="userSpaceOnUse">
<stop stop-color="#9E8A05"/>
<stop offset="1" stop-color="#9E8A05" stop-opacity="0"/>
</linearGradient>
<linearGradient id="paint8_linear" x1="176" y1="81.5" x2="33.5" y2="81.5" gradientUnits="userSpaceOnUse">
<stop stop-color="#9E8A05"/>
<stop offset="1" stop-color="#9E8A05" stop-opacity="0"/>
</linearGradient>
<linearGradient id="paint9_linear" x1="176" y1="81.5" x2="33.5" y2="81.5" gradientUnits="userSpaceOnUse">
<stop stop-color="#9E8A05"/>
<stop offset="1" stop-color="#9E8A05" stop-opacity="0"/>
</linearGradient>
<linearGradient id="paint10_linear" x1="176" y1="81.5" x2="33.5" y2="81.5" gradientUnits="userSpaceOnUse">
<stop stop-color="#9E8A05"/>
<stop offset="1" stop-color="#9E8A05" stop-opacity="0"/>
</linearGradient>
</defs>
</svg>
